<?xml version="1.0" standalone="no"?>
<!DOCTYPE svg PUBLIC "-//W3C//DTD SVG 20010904//EN"
 "http://www.w3.org/TR/2001/REC-SVG-20010904/DTD/svg10.dtd">
<svg version="1.0" xmlns="http://www.w3.org/2000/svg"
 width="400.000000pt" height="400.000000pt" viewBox="0 0 400.000000 400.000000"
 preserveAspectRatio="xMidYMid meet">
<g transform="translate(0.000000,400.000000) scale(0.100000,-0.100000)"
fill="#000000" stroke="none">
<path d="M1813 3908 c3 -13 9 -50 13 -84 l6 -61 -58 -6 c-33 -4 -73 -9 -90
-13 l-30 -6 -18 81 c-9 45 -21 81 -26 81 -13 0 -12 -21 4 -95 8 -33 11 -63 7
-66 -8 -9 -156 -49 -179 -49 -13 0 -22 17 -36 65 -11 39 -24 65 -32 65 -19 0
-18 -10 6 -70 23 -59 26 -90 7 -90 -8 0 -41 -11 -75 -25 -34 -14 -64 -25 -67
-25 -2 0 -20 30 -38 67 -40 79 -58 70 -22 -11 14 -31 25 -62 25 -69 0 -10 -48
-39 -142 -85 -3 -2 -23 24 -43 57 -21 34 -42 61 -46 61 -15 0 -10 -14 26 -67
19 -29 35 -56 35 -61 0 -10 -115 -92 -129 -92 -5 0 -25 22 -44 48 -19 27 -42
49 -51 49 -9 0 -15 -5 -13 -11 3 -6 11 -10 18 -8 8 2 11 0 7 -3 -4 -4 9 -28
29 -52 l37 -45 -59 -54 c-59 -53 -103 -85 -91 -66 7 12 -28 45 -38 35 -4 -5
-6 -1 -4 7 2 8 -3 14 -10 12 -8 -1 -11 2 -8 6 3 5 -3 17 -13 26 -14 13 -21 14
-26 6 -4 -7 12 -31 39 -59 25 -26 46 -50 46 -55 0 -14 -92 -116 -105 -116 -6
0 -20 9 -31 21 -33 37 -75 62 -85 52 -6 -6 10 -25 46 -52 l55 -42 -50 -74
c-50 -74 -63 -85 -75 -65 -4 6 -11 8 -16 5 -5 -4 -9 -3 -9 2 0 8 -61 53 -73
53 -21 0 0 -24 48 -55 30 -19 55 -38 55 -41 0 -15 -82 -154 -91 -154 -5 0 -33
14 -62 30 -61 34 -67 36 -67 16 0 -7 25 -24 56 -36 31 -13 58 -29 61 -36 2 -7
-7 -36 -20 -66 -13 -29 -27 -63 -31 -75 -9 -28 -14 -28 -88 -2 -32 12 -62 19
-65 15 -10 -10 14 -23 74 -41 29 -9 53 -20 53 -25 0 -16 -39 -152 -45 -158 -3
-3 -35 0 -71 7 -56 12 -68 11 -75 0 -7 -11 9 -18 72 -33 l80 -20 -7 -60 c-4
-34 -8 -64 -10 -67 -2 -3 -41 -3 -88 -1 -75 4 -86 2 -86 -12 0 -13 13 -16 79
-16 44 0 82 -3 84 -7 2 -5 2 -38 -1 -75 l-4 -68 -90 0 c-67 0 -89 -3 -85 -12
2 -9 29 -13 87 -13 l84 0 3 -65 c16 -352 111 -661 289 -937 233 -362 595 -627
999 -733 167 -44 254 -54 447 -53 l176 0 7 -83 c6 -64 11 -84 22 -84 12 0 14
14 8 85 -7 83 -7 84 16 89 57 12 153 25 156 22 2 -2 9 -39 16 -82 8 -48 17
-79 26 -82 14 -5 14 0 -6 128 l-5 36 77 18 c42 10 80 14 85 10 4 -5 15 -31 24
-59 19 -57 32 -82 41 -74 3 4 -5 37 -19 75 -14 37 -22 72 -19 76 4 8 44 27 68
34 32 8 85 36 85 45 0 20 25 -16 54 -78 16 -35 33 -63 38 -63 14 0 9 18 -17
70 -26 50 -32 90 -16 90 6 0 36 16 69 35 52 30 109 44 96 23 -6 -9 55 -108 67
-108 14 0 11 9 -28 73 l-36 60 24 20 c13 11 23 24 21 29 -1 5 2 7 8 3 6 -4 28
7 49 24 21 17 44 31 49 31 6 0 30 -24 53 -54 24 -30 47 -52 51 -49 5 2 3 13
-4 22 -7 10 -27 37 -44 59 l-32 42 71 68 c80 79 77 108 -3 35 -265 -241 -556
-385 -910 -449 -115 -21 -415 -24 -535 -5 -389 60 -739 242 -1010 522 -55 57
-104 103 -108 101 -5 -1 -6 1 -3 6 2 4 -24 48 -59 98 -146 202 -245 441 -297
714 -23 125 -28 409 -9 535 44 288 164 580 328 800 78 105 250 280 343 350 36
26 71 55 78 63 6 9 12 13 12 9 0 -3 35 15 78 40 310 184 691 274 1030 244 167
-15 288 -40 439 -92 325 -112 609 -317 819 -589 304 -394 430 -930 328 -1400
-69 -323 -212 -613 -404 -823 l-62 -67 63 -60 c35 -32 67 -59 72 -60 18 -1 3
22 -43 63 -27 25 -50 49 -50 54 0 6 9 18 20 28 11 10 20 21 20 25 0 4 17 27
39 50 43 47 41 47 109 -7 23 -19 48 -33 54 -31 12 4 -77 78 -93 78 -20 0 -6
42 34 104 l43 65 35 -20 c18 -12 48 -30 65 -40 26 -16 33 -17 37 -5 4 9 -14
25 -56 47 -34 18 -65 33 -68 32 -3 -1 14 36 38 83 24 46 48 84 53 84 5 0 24
-8 42 -18 58 -31 87 -41 93 -32 3 4 -26 23 -64 40 l-69 32 25 74 c28 84 29 85
118 54 32 -11 60 -18 63 -16 11 12 -13 25 -73 41 -46 13 -65 23 -65 34 0 18
36 161 42 166 2 2 36 -4 75 -14 64 -17 72 -17 78 -3 7 19 6 19 -30 25 -16 3
-50 10 -73 16 l-44 12 7 62 c4 34 8 69 10 77 1 12 20 16 83 18 97 3 110 21 17
23 -36 1 -71 2 -77 3 -10 1 -13 39 -15 151 -2 169 -13 265 -49 410 -146 595
-581 1066 -1164 1259 -176 58 -292 78 -510 85 l-195 6 -9 78 c-6 58 -12 77
-23 77 -11 0 -14 -7 -10 -22z"/>
<path d="M1786 3420 c-124 -20 -359 -96 -349 -114 3 -5 1 -6 -5 -2 -16 10 -83
-23 -75 -37 3 -6 1 -7 -5 -3 -14 8 -73 -24 -66 -36 3 -4 -1 -6 -8 -3 -36 14
-366 -259 -354 -292 3 -8 2 -12 -3 -9 -15 10 -97 -93 -86 -107 3 -4 2 -5 -2
-2 -14 11 -107 -150 -97 -167 4 -6 3 -8 -3 -5 -19 12 -79 -139 -119 -298 -81
-326 -43 -669 106 -968 64 -126 121 -214 200 -305 47 -55 65 -70 72 -60 8 10
9 9 5 -4 -12 -36 222 -211 398 -296 242 -118 621 -167 880 -113 202 43 396
123 540 225 77 54 205 165 205 178 0 6 3 9 6 5 9 -9 104 105 97 117 -3 5 -1 6
5 2 10 -6 52 43 52 62 0 6 4 12 8 14 11 4 92 141 121 202 34 74 79 216 103
323 31 144 31 406 -1 553 -21 98 -71 255 -102 325 -55 123 -244 385 -265 367
-4 -4 -4 -2 0 5 4 7 -33 46 -98 102 -107 92 -139 114 -150 106 -3 -3 -4 -2 -1
2 6 8 -91 67 -182 110 -86 40 -231 88 -328 110 -83 18 -411 26 -499 13z m429
-50 c115 -20 200 -43 300 -83 55 -21 108 -39 117 -40 9 -1 15 -4 13 -7 -2 -3
22 -21 53 -40 110 -65 218 -150 307 -242 50 -50 94 -91 98 -90 5 1 6 -2 2 -8
-9 -14 14 -42 28 -33 5 3 7 1 4 -4 -4 -6 9 -35 29 -65 148 -219 234 -530 221
-803 -6 -131 -33 -284 -67 -385 -50 -146 -158 -343 -235 -429 -23 -25 -34 -45
-29 -53 4 -7 4 -10 -1 -6 -4 4 -53 -35 -108 -88 -60 -57 -137 -118 -193 -152
-51 -31 -90 -60 -88 -64 3 -4 -3 -5 -12 -1 -13 5 -15 3 -9 -7 5 -8 4 -11 -1
-7 -6 3 -65 -16 -132 -43 -277 -110 -540 -128 -842 -56 -154 36 -347 126 -483
224 -105 75 -274 252 -343 359 -140 214 -211 441 -221 708 -6 177 11 320 57
465 16 52 26 99 23 104 -3 6 -3 8 2 4 4 -4 20 20 36 52 39 84 100 186 148 250
22 29 37 58 34 63 -3 6 -1 7 5 4 5 -4 35 22 66 57 100 113 343 280 488 334
125 47 262 78 418 96 53 6 248 -3 315 -14z"/>
<path d="M1815 3259 c-149 -18 -269 -54 -330 -99 -32 -23 -68 -79 -61 -95 4
-12 10 -11 28 8 13 12 20 24 17 27 -3 3 -4 12 0 20 6 16 41 24 41 9 0 -5 -7
-9 -15 -9 -11 0 -13 -9 -10 -37 4 -28 0 -45 -15 -63 -18 -23 -20 -23 -20 -5 0
17 -2 17 -10 5 -8 -12 -11 -11 -17 10 l-7 25 -7 -25 c-4 -14 -7 -91 -8 -172
l-1 -148 178 0 c97 0 234 -3 305 -7 l127 -6 0 -38 0 -38 -457 -4 c-389 -3
-465 -6 -505 -20 -63 -21 -86 -35 -123 -68 -16 -16 -33 -29 -37 -29 -5 0 -8
-4 -8 -8 0 -10 66 -10 75 0 4 3 -1 5 -11 4 -27 -2 -25 17 6 41 52 42 60 40 60
-11 0 -42 -2 -46 -25 -46 -20 0 -25 -5 -25 -24 0 -13 -7 -26 -15 -30 -8 -3
-15 -12 -15 -20 0 -19 -27 -46 -47 -46 -11 0 -14 7 -11 25 3 13 2 24 -1 23
-26 -3 -30 3 -19 27 8 19 14 22 20 13 4 -7 8 -8 8 -3 0 6 -4 15 -8 22 -8 13
-35 -33 -66 -112 -43 -112 -67 -357 -47 -496 36 -248 102 -378 219 -436 52
-26 68 -28 193 -31 l137 -4 4 179 c3 166 5 182 30 234 23 51 25 61 16 107 -20
100 11 180 85 218 38 20 105 11 144 -19 l28 -22 -24 40 c-14 22 -32 51 -41 65
-9 14 -31 51 -49 83 -32 56 -32 59 -16 78 19 20 67 44 219 110 68 30 92 36 98
27 4 -7 24 -57 45 -110 35 -89 53 -118 53 -85 0 6 20 77 44 157 28 94 48 146
58 148 11 2 25 -37 58 -154 l44 -157 28 62 c15 34 33 80 40 102 11 38 14 40
41 35 63 -13 283 -108 304 -132 l23 -25 -65 -130 -65 -129 51 27 c58 31 87 65
121 139 22 47 23 60 26 382 4 383 0 406 -71 494 -58 71 -160 123 -272 138
-116 16 -357 20 -450 9z m-95 -184 c59 -31 77 -113 38 -172 -29 -41 -67 -57
-120 -50 -38 5 -51 15 -95 72 -10 12 -11 95 -1 89 4 -2 9 5 13 16 17 54 103
77 165 45z"/>
<path d="M2250 2425 c10 -12 10 -18 0 -30 -15 -18 -37 -20 -43 -2 -6 16 -9 12
-39 -60 l-26 -62 21 -3 c27 -4 36 -45 12 -54 -13 -5 -10 -12 17 -36 18 -16 42
-33 53 -37 73 -33 95 -40 95 -33 0 4 -14 13 -31 19 -31 12 -32 13 -15 38 27
41 17 65 -33 84 -54 20 -73 45 -49 63 9 7 18 24 20 38 3 23 7 25 58 25 30 0
73 -3 95 -7 l40 -7 -35 16 c-88 40 -152 62 -140 48z"/>
<path d="M2615 2039 c14 -38 11 -144 -4 -171 -17 -33 -51 -48 -104 -48 -34 0
-50 7 -81 35 -70 64 -94 37 -45 -50 19 -35 35 -53 41 -47 6 6 1 22 -11 43 -28
46 -26 54 7 29 79 -58 186 -41 218 35 24 58 14 183 -15 193 -11 4 -12 -1 -6
-19z"/>
<path d="M1722 1908 c13 -71 32 -105 87 -158 139 -134 362 -95 451 78 26 49
39 132 21 132 -6 0 -11 -16 -11 -35 0 -45 -38 -121 -82 -164 -77 -77 -198 -95
-304 -45 -79 37 -148 136 -147 212 0 19 -4 32 -12 32 -9 0 -10 -12 -3 -52z"/>
<path d="M1583 1860 c-19 -29 -71 -52 -109 -48 -23 3 -34 0 -34 -9 0 -23 74
-15 115 12 20 14 41 25 45 23 4 -2 -23 -57 -61 -123 l-68 -120 27 -22 c44 -37
272 -147 282 -137 9 9 100 223 100 237 0 4 -4 7 -10 7 -5 0 -9 -3 -8 -7 2 -9
-7 -31 -56 -135 -42 -90 -23 -89 -190 -7 -77 37 -106 56 -106 70 0 10 5 21 11
24 6 4 8 14 5 22 -3 8 -2 12 3 9 13 -8 112 191 105 209 -9 21 -37 19 -51 -5z"/>
<path d="M2426 1751 c-9 -14 25 -72 37 -64 6 3 7 1 4 -4 -9 -15 37 -95 49 -86
5 5 1 -2 -9 -14 -10 -11 -41 -31 -68 -42 -31 -14 -47 -26 -43 -33 4 -6 3 -8
-4 -4 -11 7 -62 -12 -73 -27 -3 -5 -9 -8 -13 -8 -20 3 -26 0 -20 -11 4 -7 3
-8 -4 -4 -6 4 -21 2 -33 -5 -29 -15 -39 -3 -80 101 -42 108 -55 134 -63 122
-3 -5 5 -36 18 -68 13 -33 36 -90 52 -129 33 -84 30 -80 46 -68 7 6 24 14 38
18 53 15 248 128 260 150 10 19 7 31 -30 96 -48 86 -55 95 -64 80z"/>
<path d="M586 2864 c-11 -29 -6 -44 14 -44 11 0 20 -4 20 -9 0 -4 -9 -20 -20
-34 -11 -14 -20 -35 -20 -46 0 -24 -18 -28 -26 -6 -10 24 -21 18 -27 -15 -5
-21 -11 -28 -22 -24 -8 3 -15 1 -15 -5 0 -23 33 -25 51 -3 25 32 29 28 22 -27
-5 -41 -2 -52 16 -70 11 -11 28 -21 36 -21 12 0 11 5 -3 29 -19 34 -7 72 28
91 19 10 20 9 14 -14 -3 -14 -3 -29 0 -35 8 -12 36 -3 36 11 0 5 -4 7 -9 3
-17 -10 -21 12 -6 25 25 20 17 33 -15 27 -37 -8 -37 -1 1 43 27 32 31 33 43
18 10 -14 16 -15 36 -5 13 7 26 19 28 27 4 12 1 11 -15 -2 -22 -20 -43 -24
-43 -8 0 6 -7 10 -16 10 -12 0 -15 6 -9 23 17 55 17 67 2 67 -8 0 -24 -11 -34
-26 -24 -32 -57 -24 -50 12 5 27 -8 33 -17 8z"/>
<path d="M548 1841 c3 -51 1 -62 -22 -86 -15 -16 -28 -26 -30 -24 -7 7 13 49
24 49 5 0 10 4 10 9 0 4 -11 6 -24 4 -18 -4 -27 1 -37 18 -7 13 -18 30 -26 37
-10 11 -11 17 -2 28 18 22 2 17 -27 -8 -31 -27 -54 -69 -54 -98 0 -24 9 -26
24 -4 10 13 16 13 38 3 36 -16 42 -35 19 -58 -11 -11 -16 -23 -13 -27 4 -4 -5
0 -20 9 -23 14 -28 15 -28 3 0 -7 7 -19 16 -27 13 -10 22 -10 52 1 26 9 37 10
40 1 2 -6 8 -11 14 -11 6 0 7 7 4 16 -5 14 -4 15 9 4 11 -9 12 -17 4 -31 -10
-19 -30 -25 -43 -12 -4 4 -25 8 -47 8 -47 0 -50 -22 -6 -43 36 -17 63 -10 105
29 32 28 33 33 24 67 -7 25 -10 30 -11 15 -1 -31 -21 -29 -21 2 0 15 9 31 23
40 21 14 23 21 19 73 -6 76 -18 87 -14 13z"/>
<path d="M3330 1388 c-25 -41 -25 -48 0 -48 27 0 25 -18 -2 -22 -35 -5 -94
-106 -74 -126 9 -8 56 50 49 61 -3 5 9 1 26 -7 28 -15 35 -14 33 5 -1 4 8 5
18 2 14 -4 20 0 20 11 0 9 10 21 23 26 17 7 18 9 5 9 -10 1 -18 6 -18 11 0 6
12 9 28 9 41 -3 52 0 52 11 0 6 -8 10 -17 8 -11 -2 -17 2 -15 10 1 8 -3 12
-10 9 -7 -2 -12 -9 -11 -15 4 -17 -25 -3 -31 15 -5 11 -14 14 -37 9 -22 -4
-29 -2 -27 7 6 17 56 21 74 6 8 -6 17 -9 20 -6 10 9 -33 41 -61 44 -19 3 -29
-4 -45 -29z"/>
<path d="M820 1033 c0 -4 7 -15 17 -25 23 -25 10 -33 -22 -12 -40 26 -54 5
-26 -41 23 -40 26 -49 11 -40 -16 10 -12 -28 6 -53 22 -32 67 -52 115 -52 l42
0 -27 21 c-30 23 -33 34 -10 43 8 3 12 2 9 -3 -8 -13 35 -41 63 -41 37 0 23
32 -23 55 -36 18 -37 20 -17 23 13 2 31 -3 40 -11 19 -16 42 -12 42 7 0 6 -19
30 -42 51 -23 22 -37 33 -31 25 8 -10 9 -21 2 -30 -8 -13 -10 -13 -19 0 -5 8
-10 20 -10 27 0 17 -50 49 -87 56 -18 4 -33 4 -33 0z"/>
<path d="M1635 560 c3 -5 0 -7 -8 -4 -8 3 -17 -1 -20 -9 -6 -17 20 -27 71 -27
40 0 44 -27 5 -33 -16 -2 -6 -5 23 -6 54 -1 79 -14 86 -46 4 -16 -1 -20 -26
-23 -44 -3 -73 5 -80 24 -5 14 1 15 38 13 24 -2 42 -1 39 4 -2 4 -28 7 -58 7
-34 0 -59 5 -69 15 -8 8 -20 15 -27 15 -10 0 -10 -3 -2 -11 6 -6 10 -17 8 -23
-3 -6 22 -24 54 -40 46 -23 67 -28 96 -23 50 8 63 22 47 47 -10 17 -9 18 6 13
9 -4 30 -17 45 -30 16 -13 33 -23 38 -23 16 0 10 26 -12 55 -16 19 -28 26 -45
22 -13 -2 -24 0 -24 4 0 13 -38 49 -51 49 -5 0 -7 -4 -4 -10 3 -6 -1 -7 -9 -4
-18 7 -22 24 -6 24 6 0 10 6 10 13 0 9 -20 13 -65 15 -40 1 -64 -2 -60 -8z"/>
</g>
</svg>
